<?xml version="1.0" encoding="utf-8"?>
<!-- Generator: Adobe Illustrator 26.5.0, SVG Export Plug-In . SVG Version: 6.00 Build 0)  -->
<svg version="1.1" id="Слой_1" xmlns="http://www.w3.org/2000/svg" xmlns:xlink="http://www.w3.org/1999/xlink" x="0px" y="0px"
	 viewBox="0 0 960 960" style="enable-background:new 0 0 960 960;" xml:space="preserve">
<style type="text/css">
	.st0{fill:#2B2A28;}
</style>
<g id="Слой_3">
	<path class="st0" d="M480.01,13.35C222.28,13.35,13.36,222.28,13.36,480s208.92,466.65,466.65,466.65
		c257.72,0,466.64-208.93,466.64-466.65S737.72,13.35,480.01,13.35z M809.83,211.33c-47.26-12.72-114.6-14.2-114.6-14.2
		c-6.65-24.22-28.82-42.01-55.15-42.01c-7.74,0-15.13,1.54-21.86,4.33c0,0-66.46-72.09-138.21-104.85
		C613.06,54.6,731.83,115.68,809.83,211.33z M425.67,58.04c0,0,115.01,52.52,171.09,116.93c-7.18,8.32-11.99,18.72-13.42,30.18
		h-0.01c-8.23,1.02-78.57,13.29-103.32,27.87H480c-9.32-18.93-28.8-31.94-51.32-31.94c-18.85,0-35.58,9.12-46,23.19
		c0,0-86.26-43.44-200.13-48.38C247.05,112.79,331.56,70.04,425.67,58.04z M220.38,481.94c69.5-120.5,173.01-178.66,173.01-178.66
		c9.72,7.63,21.97,12.18,35.29,12.18c14.88,0,28.43-5.68,38.6-15c0,0,165.65,97.98,214.38,327.34
		c-19.99,8.91-33.92,28.96-33.92,52.25C409.02,718.1,230.26,556.37,230.26,556.37c5.99-9.04,9.48-19.88,9.48-31.55
		C239.74,507.74,232.25,492.41,220.38,481.94z M158.82,201.06c38.07,0.94,124.7,7.71,213.65,46.58c-0.65,3.44-0.99,7-0.99,10.63
		c0,9.04,2.1,17.58,5.83,25.18c-119.78,72.67-180.18,186.06-180.18,186.06c-4.65-1.23-9.54-1.88-14.58-1.88
		c-11.14,0-21.53,3.18-30.32,8.69c-49.2-56.67-78.41-123.09-78.41-123.09C91.51,296.49,120.76,244.84,158.82,201.06z M54.61,480
		c0-30.27,3.16-59.81,9.18-88.29c15.03,31.81,69.58,103.91,69.58,103.91c-5.09,8.55-8.01,18.53-8.01,29.2
		c0,19.7,9.96,37.07,25.11,47.35c0,0-29.78,89.84-31.4,133.07C78.22,639.92,54.61,562.72,54.61,480z M480.01,905.4
		c-138.27,0-261.13-65.97-338.83-168.15c3.82-76.34,32.96-155.86,32.96-155.86c2.74,0.41,5.55,0.62,8.41,0.62
		c11.11,0,21.48-3.17,30.26-8.66c20.31,18.8,193.15,170.51,440.69,131.72c0.02,0.06,0.05,0.11,0.08,0.17
		c3.79,7.74,9.29,14.49,16,19.77c0,0-22.18,73.31-102.44,171.45C539.02,902.32,509.87,905.4,480.01,905.4z M681.66,854.65
		c-22.65,12.23-46.54,22.45-71.44,30.44c0.77-1.08,50.03-70.31,81.95-145.29C692.17,739.8,696.17,792.31,681.66,854.65z
		 M482.01,278.94c2.5-6.41,3.86-13.38,3.86-20.67c28.08-14.81,99.41-29.57,99.41-29.57c7.04,23.6,28.91,40.8,54.8,40.8
		c8.84,0,17.22-2.01,24.69-5.59c90.71,167.46,39.14,348.57,39.14,348.57C662.8,394.02,482.01,278.94,482.01,278.94z M711.95,836.65
		c7.53-57.36,5.87-100.86,5.87-100.86c24.79-5.71,43.41-27.54,44.27-53.85c19.04-6.01,68.47-23.14,116.35-52.6
		C846.34,714.96,787.44,787.47,711.95,836.65z M889.98,593.82c-64.63,43.46-133.2,62.1-133.2,62.1
		c-5.81-12.47-15.99-22.5-28.58-28.12c53.32-233.78-43.8-379.36-43.8-379.36c5.81-7.11,9.94-15.65,11.78-25.01
		c85.69,0.39,137.04,20.81,138.28,21.31C879.29,312.12,905.4,393.01,905.4,480c0,39.42-5.36,77.59-15.4,113.82H889.98z"/>
</g>
</svg>
